<svg width="36" height="36" viewBox="0 0 36 36" fill="none" xmlns="http://www.w3.org/2000/svg">
<path d="M11.25 18C11.25 18.5967 11.0129 19.169 10.591 19.591C10.169 20.0129 9.59674 20.25 9 20.25C8.40326 20.25 7.83097 20.0129 7.40901 19.591C6.98705 19.169 6.75 18.5967 6.75 18C6.75 17.4033 6.98705 16.831 7.40901 16.409C7.83097 15.9871 8.40326 15.75 9 15.75C9.59674 15.75 10.169 15.9871 10.591 16.409C11.0129 16.831 11.25 17.4033 11.25 18ZM20.25 18C20.25 18.5967 20.0129 19.169 19.591 19.591C19.169 20.0129 18.5967 20.25 18 20.25C17.4033 20.25 16.831 20.0129 16.409 19.591C15.9871 19.169 15.75 18.5967 15.75 18C15.75 17.4033 15.9871 16.831 16.409 16.409C16.831 15.9871 17.4033 15.75 18 15.75C18.5967 15.75 19.169 15.9871 19.591 16.409C20.0129 16.831 20.25 17.4033 20.25 18ZM27 20.25C27.5967 20.25 28.169 20.0129 28.591 19.591C29.0129 19.169 29.25 18.5967 29.25 18C29.25 17.4033 29.0129 16.831 28.591 16.409C28.169 15.9871 27.5967 15.75 27 15.75C26.4033 15.75 25.831 15.9871 25.409 16.409C24.9871 16.831 24.75 17.4033 24.75 18C24.75 18.5967 24.9871 19.169 25.409 19.591C25.831 20.0129 26.4033 20.25 27 20.25Z" fill="black"/>
<path d="M4.87125 35.5567L4.91625 35.5477C9.03375 34.731 11.5492 33.6532 12.7192 33.0615C14.4415 33.5225 16.2171 33.754 18 33.75C27.9405 33.75 36 26.6985 36 18C36 9.3015 27.9405 2.25 18 2.25C8.0595 2.25 0 9.3015 0 18C0 21.96 1.67175 25.5825 4.4325 28.35C4.24007 30.1278 3.84449 31.8778 3.2535 33.5655L3.24675 33.5902C3.07861 34.0736 2.89552 34.5515 2.69775 35.0235C2.52 35.442 2.86425 35.91 3.312 35.838C3.83322 35.7526 4.35303 35.6588 4.87125 35.5567ZM6.67125 28.5637C6.70277 28.2343 6.66124 27.902 6.54962 27.5905C6.438 27.279 6.25904 26.9959 6.0255 26.7615C3.6405 24.3675 2.25 21.303 2.25 18C2.25 10.818 9.009 4.5 18 4.5C26.991 4.5 33.75 10.818 33.75 18C33.75 25.182 26.991 31.5 18 31.5C16.4139 31.5039 14.8342 31.2981 13.302 30.888C12.7664 30.7445 12.1968 30.8038 11.7023 31.0545C10.8315 31.4955 8.91225 32.337 5.77575 33.0637C6.21294 31.5947 6.51273 30.0882 6.67125 28.5637Z" fill="black"/>
</svg>
