<svg width="82" height="82" viewBox="0 0 82 82" fill="none" xmlns="http://www.w3.org/2000/svg">
<g clip-path="url(#clip0_4_5)">
<path d="M31.6059 41C31.0473 41 30.4941 41.11 29.978 41.3238C29.462 41.5376 28.993 41.8509 28.598 42.2459C28.203 42.6409 27.8897 43.1098 27.6759 43.6259C27.4622 44.142 27.3521 44.6951 27.3521 45.2537C27.3521 47.6061 29.2586 49.5588 31.6059 49.5126C32.7092 49.4743 33.7545 49.0091 34.5214 48.2151C35.2884 47.4211 35.717 46.3603 35.717 45.2563C35.717 44.1524 35.2884 43.0916 34.5214 42.2975C33.7545 41.5035 32.7092 41.0383 31.6059 41ZM41.0513 59.6909C42.6656 59.6909 48.2416 59.4961 51.1783 56.5595C51.3706 56.3436 51.4769 56.0645 51.4769 55.7754C51.4769 55.4862 51.3706 55.2071 51.1783 54.9912C51.0765 54.8862 50.9546 54.8026 50.8199 54.7456C50.6852 54.6885 50.5404 54.6591 50.3941 54.6591C50.2478 54.6591 50.103 54.6885 49.9683 54.7456C49.8336 54.8026 49.7118 54.8862 49.61 54.9912C47.8009 56.8516 43.8393 57.4871 41.0513 57.4871C38.2581 57.4871 34.3478 56.8516 32.4874 54.9912C32.3856 54.8862 32.2637 54.8026 32.129 54.7456C31.9943 54.6885 31.8495 54.6591 31.7033 54.6591C31.557 54.6591 31.4122 54.6885 31.2775 54.7456C31.1428 54.8026 31.0209 54.8862 30.9191 54.9912C30.814 55.093 30.7305 55.2149 30.6734 55.3496C30.6164 55.4843 30.587 55.6291 30.587 55.7754C30.587 55.9217 30.6164 56.0665 30.6734 56.2012C30.7305 56.3359 30.814 56.4577 30.9191 56.5595C33.8096 59.4449 39.3856 59.6858 41.0513 59.6858V59.6909ZM46.1353 45.305C46.1353 47.6523 48.0469 49.5588 50.3941 49.5588C52.7414 49.5588 54.6479 47.6061 54.6479 45.305C54.5943 44.213 54.1227 43.1834 53.3308 42.4294C52.539 41.6755 51.4875 41.255 50.3941 41.255C49.3008 41.255 48.2493 41.6755 47.4574 42.4294C46.6656 43.1834 46.194 44.213 46.1404 45.305H46.1353Z" fill="white"/>
<path d="M82 41C82 51.8739 77.6804 62.3024 69.9914 69.9914C62.3024 77.6804 51.8739 82 41 82C30.1261 82 19.6976 77.6804 12.0086 69.9914C4.31963 62.3024 0 51.8739 0 41C0 30.1261 4.31963 19.6976 12.0086 12.0086C19.6976 4.31963 30.1261 0 41 0C51.8739 0 62.3024 4.31963 69.9914 12.0086C77.6804 19.6976 82 30.1261 82 41ZM62.3815 35.0294C60.7671 35.0294 59.2962 35.6649 58.22 36.695C54.1149 33.7584 48.4825 31.8519 42.2249 31.6059L44.9616 18.7882L53.8689 20.6947C53.908 21.5264 54.1903 22.3283 54.6809 23.0011C55.1714 23.6738 55.8486 24.1878 56.6285 24.4793C57.4084 24.7709 58.2567 24.8271 59.0683 24.6411C59.8798 24.4551 60.6189 24.035 61.194 23.4329C61.7691 22.8308 62.1548 22.0732 62.3034 21.254C62.452 20.4347 62.3569 19.5899 62.0299 18.8242C61.7029 18.0585 61.1583 17.4056 60.4638 16.9464C59.7693 16.4873 58.9552 16.242 58.1226 16.2411C57.3263 16.2439 56.5467 16.4702 55.8726 16.8942C55.1985 17.3182 54.657 17.923 54.3096 18.6396L44.3774 16.5384C44.2437 16.5087 44.1055 16.5061 43.9708 16.5308C43.8361 16.5554 43.7077 16.6068 43.5932 16.6819C43.4767 16.7601 43.3774 16.8614 43.3016 16.9795C43.2258 17.0976 43.175 17.2301 43.1525 17.3686L40.1185 31.6571C33.7635 31.8519 28.0337 33.7584 23.8722 36.7411C22.796 35.7161 21.3303 35.0806 19.721 35.0806C18.3562 35.0786 17.0321 35.545 15.9699 36.4019C14.9077 37.2588 14.1717 38.4543 13.8849 39.7885C13.5981 41.1228 13.7779 42.5151 14.3943 43.7328C15.0106 44.9505 16.0262 45.9197 17.2712 46.4786C17.1687 47.0595 17.1192 47.6625 17.1226 48.2878C17.1226 57.4871 27.839 64.9748 41.0513 64.9748C54.2635 64.9748 64.9748 57.5384 64.9748 48.2878C64.9748 47.7035 64.9235 47.068 64.8261 46.4786C66.8813 45.551 68.3521 43.4446 68.3521 41C68.3521 37.6688 65.6615 35.0294 62.3815 35.0294Z" fill="white"/>
</g>
<defs>
<clipPath id="clip0_4_5">
<rect width="82" height="82" fill="white"/>
</clipPath>
</defs>
</svg>
