<svg width="42" height="42" viewBox="0 0 42 42" fill="none" xmlns="http://www.w3.org/2000/svg">
<g clip-path="url(#clip0_4_8)">
<path d="M16.1884 21C15.9023 21 15.6189 21.0564 15.3546 21.1658C15.0903 21.2753 14.8501 21.4358 14.6478 21.6381C14.4455 21.8405 14.285 22.0806 14.1755 22.345C14.066 22.6093 14.0096 22.8926 14.0096 23.1788C14.0096 24.3836 14.9861 25.3838 16.1884 25.3601C16.7535 25.3405 17.2889 25.1022 17.6817 24.6955C18.0745 24.2888 18.2941 23.7455 18.2941 23.1801C18.2941 22.6146 18.0745 22.0713 17.6817 21.6646C17.2889 21.2579 16.7535 21.0196 16.1884 21ZM21.0263 30.5734C21.8531 30.5734 24.7091 30.4736 26.2133 28.9695C26.3118 28.8589 26.3662 28.716 26.3662 28.5679C26.3662 28.4198 26.3118 28.2768 26.2133 28.1662C26.1611 28.1124 26.0987 28.0696 26.0297 28.0404C25.9607 28.0112 25.8866 27.9961 25.8116 27.9961C25.7367 27.9961 25.6625 28.0112 25.5935 28.0404C25.5245 28.0696 25.4621 28.1124 25.41 28.1662C24.4834 29.1191 22.4543 29.4446 21.0263 29.4446C19.5956 29.4446 17.5928 29.1191 16.6399 28.1662C16.5877 28.1124 16.5253 28.0696 16.4563 28.0404C16.3873 28.0112 16.3132 27.9961 16.2382 27.9961C16.1633 27.9961 16.0892 28.0112 16.0202 28.0404C15.9512 28.0696 15.8888 28.1124 15.8366 28.1662C15.7828 28.2184 15.74 28.2808 15.7108 28.3498C15.6816 28.4188 15.6665 28.4929 15.6665 28.5679C15.6665 28.6428 15.6816 28.717 15.7108 28.786C15.74 28.855 15.7828 28.9174 15.8366 28.9695C17.3171 30.4474 20.1731 30.5708 21.0263 30.5708V30.5734ZM23.6302 23.205C23.6302 24.4073 24.6094 25.3838 25.8116 25.3838C27.0139 25.3838 27.9904 24.3836 27.9904 23.205C27.9629 22.6457 27.7214 22.1183 27.3158 21.7321C26.9102 21.346 26.3716 21.1306 25.8116 21.1306C25.2516 21.1306 24.713 21.346 24.3075 21.7321C23.9019 22.1183 23.6603 22.6457 23.6329 23.205H23.6302Z" fill="white"/>
<path d="M42 21C42 26.5695 39.7875 31.911 35.8492 35.8492C31.911 39.7875 26.5695 42 21 42C15.4305 42 10.089 39.7875 6.15076 35.8492C2.21249 31.911 0 26.5695 0 21C0 15.4305 2.21249 10.089 6.15076 6.15076C10.089 2.21249 15.4305 0 21 0C26.5695 0 31.911 2.21249 35.8492 6.15076C39.7875 10.089 42 15.4305 42 21ZM31.9515 17.9419C31.1246 17.9419 30.3712 18.2674 29.82 18.795C27.7174 17.2909 24.8325 16.3144 21.6274 16.1884L23.0291 9.62325L27.5914 10.5998C27.6114 11.0257 27.756 11.4365 28.0073 11.781C28.2585 12.1256 28.6054 12.3889 29.0049 12.5382C29.4043 12.6875 29.8388 12.7163 30.2545 12.6211C30.6702 12.5258 31.0487 12.3106 31.3433 12.0022C31.6378 11.6938 31.8354 11.3058 31.9115 10.8862C31.9876 10.4666 31.9389 10.0339 31.7714 9.64167C31.6039 9.24948 31.325 8.91507 30.9693 8.67989C30.6135 8.44471 30.1966 8.3191 29.7701 8.31862C29.3622 8.32005 28.9629 8.43595 28.6177 8.65314C28.2724 8.87032 27.995 9.18007 27.8171 9.54712L22.7299 8.47087C22.6614 8.45568 22.5906 8.45436 22.5216 8.46698C22.4526 8.47961 22.3869 8.50592 22.3282 8.54438C22.2685 8.58442 22.2177 8.63631 22.1789 8.69682C22.14 8.75732 22.114 8.82516 22.1025 8.89612L20.5485 16.2146C17.2935 16.3144 14.3588 17.2909 12.2273 18.8186C11.676 18.2936 10.9253 17.9681 10.101 17.9681C9.40198 17.9671 8.72377 18.206 8.1797 18.6449C7.63563 19.0838 7.25866 19.6961 7.11178 20.3795C6.96489 21.0629 7.05699 21.776 7.37268 22.3997C7.68837 23.0234 8.20853 23.5199 8.84625 23.8061C8.79375 24.1036 8.76838 24.4125 8.77013 24.7327C8.77013 29.4446 14.259 33.2798 21.0263 33.2798C27.7935 33.2798 33.2798 29.4709 33.2798 24.7327C33.2798 24.4335 33.2535 24.108 33.2036 23.8061C34.2563 23.331 35.0096 22.2521 35.0096 21C35.0096 19.2938 33.6315 17.9419 31.9515 17.9419Z" fill="white"/>
</g>
<defs>
<clipPath id="clip0_4_8">
<rect width="42" height="42" fill="white"/>
</clipPath>
</defs>
</svg>
