<svg width="48" height="48" viewBox="0 0 48 48" fill="none" xmlns="http://www.w3.org/2000/svg">
<path d="M35.2274 31.0296C38.1321 27.0653 39.4332 22.1502 38.8701 17.2677C38.3071 12.3851 35.9216 7.89527 32.1908 4.69632C28.46 1.49736 23.6591 -0.174765 18.7485 0.0144737C13.8379 0.203713 9.1799 2.24036 5.70628 5.71695C2.23266 9.19355 0.199638 13.8537 0.0139391 18.7651C-0.171759 23.6765 1.50356 28.4769 4.70474 32.2059C7.90592 35.9349 12.3969 38.3176 17.2791 38.8772C22.1613 39.4368 27.0748 38.1321 31.0365 35.2241H31.0335C31.1215 35.3441 31.2195 35.4591 31.3275 35.5691L42.8771 47.1203C43.4396 47.6833 44.2027 47.9997 44.9984 48C45.7942 48.0003 46.5575 47.6844 47.1204 47.1218C47.6833 46.5592 47.9997 45.796 48 45.0001C48.0003 44.2043 47.6844 43.4408 47.1219 42.8779L35.5724 31.3267C35.4652 31.218 35.3498 31.1207 35.2274 31.0296ZM36.0013 19.4965C36.0013 21.6635 35.5746 23.8093 34.7454 25.8114C33.9162 27.8135 32.7009 29.6326 31.1688 31.1649C29.6367 32.6972 27.8178 33.9128 25.816 34.742C23.8142 35.5713 21.6687 35.9982 19.502 35.9982C17.3352 35.9982 15.1897 35.5713 13.1879 34.742C11.1861 33.9128 9.36725 32.6972 7.83514 31.1649C6.30303 29.6326 5.08769 27.8135 4.25852 25.8114C3.42935 23.8093 3.00258 21.6635 3.00258 19.4965C3.00258 15.1199 4.7409 10.9227 7.83514 7.82799C10.9294 4.73332 15.1261 2.99475 19.502 2.99475C23.8779 2.99475 28.0746 4.73332 31.1688 7.82799C34.263 10.9227 36.0013 15.1199 36.0013 19.4965Z" fill="#161616"/>
</svg>
